<svg id="Ebene_1" xmlns="http://www.w3.org/2000/svg" viewBox="0 0 114 138"><style>.st0,.st1{fill-rule:evenodd;clip-rule:evenodd;fill:#fff}.st1{fill:none;stroke:#afafaf;stroke-width:.25;stroke-miterlimit:10}</style><path class="st0" d="M0 0h114v138H0V0zm59 113.1c30-1.1 54-25.7 54-56C113 26.1 87.9 1 57 1S1 26.1 1 57.1c0 16.5 7.1 31.4 18.5 41.7L59.1 137l-.1-23.9c.1.1 0 0 0 0z"/><path class="st1" d="M59 113.1c30-1.1 54-25.7 54-56C113 26.1 87.9 1 57 1S1 26.1 1 57.1c0 16.5 7.1 31.4 18.5 41.7L59.1 137l-.1-23.9c.1.1 0 0 0 0z"/></svg>